<svg width="32" height="30" viewBox="0 0 32 30" fill="none" xmlns="http://www.w3.org/2000/svg">
<path d="M10.1876 12.5781C10.9121 12.5781 11.5001 12.0181 11.5001 11.3281V6.45313C11.5001 4.27375 13.3619 2.5 15.6502 2.5C17.9386 2.5 19.801 4.27375 19.801 6.45313V11.3281C19.801 12.0181 20.3884 12.5781 21.1135 12.5781C21.838 12.5781 22.426 12.0181 22.426 11.3281V6.45313C22.4267 2.895 19.3869 0 15.6502 0C11.9149 0 8.87512 2.895 8.87512 6.45313V11.3281C8.87512 12.0181 9.46312 12.5781 10.1876 12.5781Z" fill="#F7BCD1"/>
<path d="M30.7059 9.76935H23.7392V11.3281C23.7392 12.7068 22.5619 13.8281 21.1142 13.8281C19.6665 13.8281 18.4892 12.7068 18.4892 11.3281V9.76935H12.8133V11.3281C12.8133 12.7068 11.636 13.8281 10.1883 13.8281C8.7406 13.8281 7.56329 12.7068 7.56329 11.3281V9.76935H0.518444C0.156194 9.76935 -0.0675875 10.0412 0.0183813 10.3762L4.61082 28.1868C4.88776 29.1881 5.99419 30 7.08094 30H24.1434C25.2315 30 26.3366 29.1881 26.6149 28.1868L31.206 10.3762C31.292 10.0406 31.0688 9.76935 30.7059 9.76935Z" fill="#F7BCD1"/>
</svg>
