<svg width="44" height="44" viewBox="0 0 44 44" fill="none" xmlns="http://www.w3.org/2000/svg">
<path d="M22 0C9.89999 0 0 9.91766 0 22.1326C0 33.1767 8.05199 42.3434 18.568 44V28.5382H12.98V22.1326H18.568V17.251C18.568 11.7068 21.846 8.65863 26.884 8.65863C29.282 8.65863 31.79 9.0783 31.79 9.0783V14.5341H29.018C26.29 14.5341 25.432 16.2349 25.432 17.9799V22.1326H31.548L30.558 28.5382H25.432V44C30.616 43.1779 35.3368 40.5222 38.7417 36.5121C42.1467 32.5021 44.0118 27.4019 43.9999 22.1326C43.9999 9.91766 34.1 0 22 0Z" fill="#ED739F"/>
</svg>
