<svg width="44" height="44" viewBox="0 0 44 44" fill="none" xmlns="http://www.w3.org/2000/svg">
<path d="M22 44C34.1503 44 44 34.1503 44 22C44 9.84974 34.1503 0 22 0C9.84974 0 0 9.84974 0 22C0 34.1503 9.84974 44 22 44Z" fill="#ED739F"/>
<path d="M22 11.1783C25.5245 11.1783 25.9421 11.1918 27.3339 11.2552C28.6209 11.314 29.3199 11.529 29.785 11.7098C30.4012 11.9492 30.8408 12.2352 31.3027 12.6971C31.7647 13.1591 32.0507 13.5988 32.2902 14.2149C32.4709 14.6801 32.686 15.379 32.7447 16.6659C32.8082 18.0579 32.8216 18.4753 32.8216 21.9998C32.8216 25.5244 32.8082 25.9419 32.7447 27.3338C32.686 28.6208 32.4709 29.3197 32.2902 29.7848C32.0507 30.401 31.7647 30.8407 31.3028 31.3026C30.8408 31.7645 30.4012 32.0505 29.785 32.29C29.3199 32.4708 28.6209 32.6858 27.3339 32.7445C25.9423 32.808 25.5249 32.8215 22 32.8215C18.4752 32.8215 18.0578 32.808 16.6661 32.7445C15.3791 32.6858 14.6802 32.4708 14.215 32.29C13.5989 32.0505 13.1592 31.7645 12.6973 31.3026C12.2354 30.8407 11.9493 30.401 11.7098 29.7848C11.5291 29.3197 11.3141 28.6208 11.2553 27.3338C11.1919 25.9419 11.1784 25.5244 11.1784 21.9998C11.1784 18.4753 11.1919 18.0579 11.2553 16.6659C11.3141 15.379 11.5291 14.6801 11.7098 14.2149C11.9493 13.5988 12.2353 13.1591 12.6973 12.6972C13.1592 12.2352 13.5989 11.9492 14.215 11.7098C14.6802 11.529 15.3791 11.314 16.6661 11.2552C18.0579 11.1918 18.4755 11.1783 22 11.1783ZM22 8.79993C18.4151 8.79993 17.9655 8.81511 16.5577 8.87935C15.1527 8.94348 14.1931 9.16656 13.3535 9.49293C12.4855 9.83019 11.7493 10.2815 11.0155 11.0154C10.2816 11.7492 9.83028 12.4854 9.49302 13.3534C9.16665 14.193 8.94357 15.1525 8.87944 16.5576C8.8152 17.9655 8.80002 18.415 8.80002 21.9998C8.80002 25.5848 8.8152 26.0343 8.87944 27.4422C8.94357 28.8472 9.16665 29.8067 9.49302 30.6464C9.83028 31.5144 10.2816 32.2505 11.0155 32.9844C11.7493 33.7182 12.4855 34.1696 13.3535 34.5068C14.1931 34.8332 15.1527 35.0563 16.5577 35.1204C17.9655 35.1846 18.4151 35.1998 22 35.1998C25.5849 35.1998 26.0345 35.1846 27.4424 35.1204C28.8473 35.0563 29.8069 34.8332 30.6466 34.5068C31.5146 34.1696 32.2507 33.7182 32.9845 32.9844C33.7183 32.2505 34.1698 31.5144 34.507 30.6464C34.8334 29.8067 35.0565 28.8472 35.1206 27.4422C35.1848 26.0343 35.2 25.5848 35.2 21.9998C35.2 18.415 35.1848 17.9655 35.1206 16.5576C35.0565 15.1525 34.8334 14.193 34.507 13.3534C34.1698 12.4854 33.7183 11.7492 32.9845 11.0154C32.2507 10.2815 31.5146 9.83019 30.6466 9.49293C29.8069 9.16656 28.8473 8.94348 27.4424 8.87935C26.0345 8.81511 25.5849 8.79993 22 8.79993Z" fill="#F7BCD1"/>
<path d="M22.0065 15.2277C18.2629 15.2277 15.2282 18.2623 15.2282 22.006C15.2282 25.7496 18.2629 28.7843 22.0065 28.7843C25.7501 28.7843 28.7849 25.7496 28.7849 22.006C28.7849 18.2623 25.7501 15.2277 22.0065 15.2277ZM22.0065 26.406C19.5765 26.406 17.6065 24.436 17.6065 22.006C17.6065 19.576 19.5765 17.606 22.0065 17.606C24.4366 17.606 26.4065 19.576 26.4065 22.006C26.4065 24.436 24.4366 26.406 22.0065 26.406Z" fill="#F7BCD1"/>
<path d="M30.6358 14.9559C30.6358 15.8307 29.9266 16.5399 29.0518 16.5399C28.1769 16.5399 27.4678 15.8307 27.4678 14.9559C27.4678 14.0811 28.1769 13.3718 29.0518 13.3718C29.9266 13.3718 30.6358 14.0811 30.6358 14.9559Z" fill="#F7BCD1"/>
</svg>
