<svg width="407" height="104" viewBox="0 0 407 104" fill="none" xmlns="http://www.w3.org/2000/svg">
<path d="M128.091 65.2064C126.895 66.6584 125.301 67.3843 123.308 67.3843C121.97 67.3843 120.888 67 120.062 66.2313C119.265 65.4342 118.867 64.3665 118.867 63.0285C118.867 61.6904 119.336 60.6797 120.276 59.9964C121.215 59.2847 122.81 58.7295 125.059 58.331L127.706 57.8185V56.2811C127.706 54.4875 127.066 53.5907 125.785 53.5907C124.361 53.5907 123.593 54.7438 123.479 57.0498L119.55 56.5801C119.721 54.758 120.276 53.4199 121.215 52.5658C122.155 51.6833 123.721 51.242 125.913 51.242C130.269 51.242 132.447 53.0214 132.447 56.5801V67H129.286L128.091 65.2064ZM123.094 62.9004C123.094 64.2384 123.82 64.9075 125.272 64.9075C126.041 64.9075 126.852 64.452 127.706 63.5409V59.7402L125.785 60.1246C123.991 60.5231 123.094 61.4484 123.094 62.9004ZM140.401 52.9929C142.137 51.8256 143.845 51.242 145.525 51.242C147.205 51.242 148.443 51.7117 149.24 52.6512C150.066 53.5623 150.479 54.7438 150.479 56.1957V67H145.739V56.7936C145.739 55.7972 145.61 55.0712 145.354 54.6157C145.098 54.1601 144.571 53.9324 143.774 53.9324C143.006 53.9324 142.223 54.2028 141.425 54.7438V67H136.643V51.6263H138.82L140.401 52.9929ZM168.522 53.4626H166.429C167.055 54.3452 167.368 55.5409 167.368 57.0498C167.368 58.5302 166.885 59.8256 165.917 60.9359C164.949 62.0178 163.255 62.5587 160.835 62.5587C159.696 62.5587 158.728 62.4306 157.931 62.1744L157.077 62.9858C156.65 63.3274 156.436 63.6548 156.436 63.968C156.436 64.395 156.735 64.6085 157.333 64.6085H163.141C164.735 64.6085 165.988 65.0214 166.899 65.847C167.81 66.6441 168.265 67.6833 168.265 68.9644C168.265 72.0107 165.675 73.5338 160.493 73.5338C155.767 73.5338 153.404 72.2242 153.404 69.605C153.404 69.0356 153.618 68.4804 154.045 67.9395C154.5 67.3986 155.027 67.0427 155.625 66.8719C154.344 66.5587 153.703 65.7331 153.703 64.395C153.703 63.427 154.13 62.5302 154.984 61.7046L155.838 60.8932C154.927 59.8968 154.472 58.5872 154.472 56.9644C154.472 55.3416 154.941 53.9893 155.881 52.9075C156.849 51.7972 158.5 51.242 160.835 51.242C161.86 51.242 162.828 51.3701 163.739 51.6263H168.522V53.4626ZM158.998 56.879C158.998 58.0747 159.127 58.9431 159.383 59.484C159.639 59.9964 160.137 60.2527 160.877 60.2527C161.618 60.2527 162.13 59.9964 162.415 59.484C162.699 58.9715 162.842 58.1174 162.842 56.9217C162.842 55.6975 162.699 54.8292 162.415 54.3167C162.13 53.8043 161.618 53.548 160.877 53.548C160.137 53.548 159.639 53.8043 159.383 54.3167C159.127 54.8292 158.998 55.6833 158.998 56.879ZM161.646 67H158.657C157.888 67.7117 157.504 68.5089 157.504 69.3915C157.504 70.5587 158.5 71.1423 160.493 71.1423C162.941 71.1423 164.166 70.4733 164.166 69.1352C164.166 68.4804 163.938 67.9537 163.482 67.5552C163.055 67.1851 162.443 67 161.646 67ZM184.508 59.9537H175.412C175.412 61.8897 175.626 63.2278 176.053 63.968C176.48 64.6797 177.149 65.0356 178.06 65.0356C179.597 65.0356 180.366 64.1957 180.366 62.516L184.295 62.6014C184.152 64.0819 183.597 65.2491 182.629 66.1032C181.661 66.9573 179.967 67.3843 177.547 67.3843C175.156 67.3843 173.405 66.7153 172.295 65.3772C171.213 64.0391 170.672 62.0178 170.672 59.3132C170.672 53.9324 173.006 51.242 177.675 51.242C182.23 51.242 184.508 53.9751 184.508 59.4413V59.9537ZM179.896 57.605C179.839 56.21 179.64 55.1993 179.298 54.573C178.985 53.9181 178.458 53.5907 177.718 53.5907C177.006 53.5907 176.48 53.8754 176.138 54.4448C175.825 54.9858 175.611 56.0391 175.497 57.605H179.896ZM192.754 67H187.971V46.8861L192.754 46.2883V67ZM201.608 49.4484C201.067 49.9609 200.398 50.2171 199.601 50.2171C198.832 50.2171 198.163 49.9466 197.594 49.4057C197.053 48.8363 196.782 48.1673 196.782 47.3986C196.782 46.6014 197.053 45.9324 197.594 45.3915C198.134 44.8221 198.803 44.5374 199.601 44.5374C200.398 44.5374 201.067 44.8221 201.608 45.3915C202.149 45.9324 202.419 46.6157 202.419 47.4413C202.419 48.2384 202.149 48.9075 201.608 49.4484ZM201.992 67H197.209V51.6263H201.992V67ZM212.636 53.5907C211.753 53.5907 211.141 54.0036 210.799 54.8292C210.458 55.6263 210.287 57.121 210.287 59.3132C210.287 61.4769 210.458 62.9715 210.799 63.7972C211.17 64.6228 211.782 65.0356 212.636 65.0356C214.059 65.0356 214.785 63.7544 214.814 61.1922L218.785 61.363C218.671 63.3843 218.13 64.8932 217.162 65.8897C216.223 66.8861 214.629 67.3843 212.38 67.3843C210.984 67.3843 209.817 67.1708 208.878 66.7438C206.657 65.7473 205.547 63.2705 205.547 59.3132C205.547 56.9217 205.945 55.0427 206.742 53.6762C207.71 52.0534 209.589 51.242 212.38 51.242C214.6 51.242 216.18 51.7117 217.12 52.6512C218.088 53.5907 218.629 55.0285 218.742 56.9644L214.814 57.3915C214.785 54.8577 214.059 53.5907 212.636 53.5907ZM238.24 67L234.311 60.8505L234.14 61.0641H234.097V67H229.314V46.8861L234.097 46.2883V58.2883L240.204 51.6263H242.894L237.215 57.7758L243.364 67H238.24ZM249.983 49.4484C249.442 49.9609 248.773 50.2171 247.976 50.2171C247.207 50.2171 246.538 49.9466 245.969 49.4057C245.428 48.8363 245.157 48.1673 245.157 47.3986C245.157 46.6014 245.428 45.9324 245.969 45.3915C246.509 44.8221 247.178 44.5374 247.976 44.5374C248.773 44.5374 249.442 44.8221 249.983 45.3915C250.524 45.9324 250.794 46.6157 250.794 47.4413C250.794 48.2384 250.524 48.9075 249.983 49.4484ZM250.367 67H245.584V51.6263H250.367V67ZM262.89 64.3096L263.53 66.4448C262.363 67.0712 261.053 67.3843 259.601 67.3843C258.178 67.3843 257.082 67 256.313 66.2313C255.63 65.548 255.288 64.2527 255.288 62.3452V54.0605H252.982V51.6263H255.288V49.5338L260.071 47.911V51.6263H262.975V54.0605H260.071V63.2847C260.071 64.2811 260.441 64.7794 261.182 64.7794C261.637 64.7794 262.206 64.6228 262.89 64.3096ZM273.39 64.3096L274.03 66.4448C272.863 67.0712 271.553 67.3843 270.101 67.3843C268.678 67.3843 267.582 67 266.813 66.2313C266.13 65.548 265.788 64.2527 265.788 62.3452V54.0605H263.482V51.6263H265.788V49.5338L270.571 47.911V51.6263H273.475V54.0605H270.571V63.2847C270.571 64.2811 270.941 64.7794 271.682 64.7794C272.137 64.7794 272.706 64.6228 273.39 64.3096ZM288.502 51.6263L281.199 73.4911L277.698 73.1068L280.473 67.5125L273.683 51.6263H278.424L282.523 61.6619L285.769 51.6263H288.502Z" fill="white"/>
<path d="M161.634 88.2954C161.193 88.2954 160.887 88.5018 160.716 88.9146C160.545 89.3132 160.46 90.0605 160.46 91.1566C160.46 92.2384 160.545 92.9858 160.716 93.3986C160.901 93.8114 161.207 94.0178 161.634 94.0178C162.346 94.0178 162.709 93.3772 162.723 92.0961L164.709 92.1815C164.652 93.1922 164.382 93.9466 163.898 94.4448C163.428 94.9431 162.631 95.1922 161.506 95.1922C160.809 95.1922 160.225 95.0854 159.755 94.8719C158.645 94.3737 158.09 93.1352 158.09 91.1566C158.09 89.9609 158.289 89.0214 158.688 88.3381C159.172 87.5267 160.111 87.121 161.506 87.121C162.616 87.121 163.407 87.3559 163.876 87.8256C164.36 88.2954 164.631 89.0142 164.688 89.9822L162.723 90.1957C162.709 88.9288 162.346 88.2954 161.634 88.2954ZM168.849 95H166.458V84.9431L168.849 84.6441V95ZM177.91 91.1566C177.91 93.847 176.693 95.1922 174.259 95.1922C171.839 95.1922 170.629 93.847 170.629 91.1566C170.629 88.4662 171.839 87.121 174.259 87.121C176.693 87.121 177.91 88.4662 177.91 91.1566ZM172.999 91.1566C172.999 92.153 173.084 92.879 173.255 93.3345C173.426 93.79 173.761 94.0178 174.259 94.0178C174.771 94.0178 175.106 93.7972 175.262 93.3559C175.433 92.9004 175.519 92.1673 175.519 91.1566C175.519 90.1459 175.433 89.4199 175.262 88.9786C175.106 88.5231 174.771 88.2954 174.259 88.2954C173.761 88.2954 173.426 88.5231 173.255 88.9786C173.084 89.4342 172.999 90.1601 172.999 91.1566ZM183.668 93.6548L183.988 94.7224C183.404 95.0356 182.749 95.1922 182.023 95.1922C181.312 95.1922 180.764 95 180.379 94.6157C180.038 94.274 179.867 93.6263 179.867 92.6726V88.5302H178.714V87.3132H179.867V86.2669L182.258 85.4555V87.3132H183.71V88.5302H182.258V93.1423C182.258 93.6406 182.443 93.8897 182.813 93.8897C183.041 93.8897 183.326 93.8114 183.668 93.6548ZM187.295 87.6975C188.006 87.3132 188.732 87.121 189.473 87.121C190.227 87.121 190.804 87.3559 191.202 87.8256C191.615 88.2811 191.821 88.8719 191.821 89.5979V95H189.451V89.8968C189.451 89.3843 189.387 89.0214 189.259 88.8078C189.131 88.5801 188.868 88.4662 188.469 88.4662C188.085 88.4662 187.693 88.6014 187.295 88.8719V95H184.903V84.9431L187.295 84.6441V87.6975ZM200.352 91.4769H195.804C195.804 92.4448 195.91 93.1139 196.124 93.484C196.337 93.8399 196.672 94.0178 197.127 94.0178C197.896 94.0178 198.281 93.5979 198.281 92.758L200.245 92.8007C200.174 93.5409 199.896 94.1246 199.412 94.5516C198.928 94.9786 198.081 95.1922 196.871 95.1922C195.676 95.1922 194.8 94.8577 194.245 94.1886C193.704 93.5196 193.434 92.5089 193.434 91.1566C193.434 88.4662 194.601 87.121 196.935 87.121C199.213 87.121 200.352 88.4875 200.352 91.2206V91.4769ZM198.046 90.3025C198.017 89.605 197.918 89.0996 197.747 88.7865C197.59 88.4591 197.327 88.2954 196.957 88.2954C196.601 88.2954 196.337 88.4377 196.167 88.7224C196.01 88.9929 195.903 89.5196 195.846 90.3025H198.046ZM205.094 90.089L205.734 90.3238C206.474 90.5374 207.037 90.8292 207.421 91.1993C207.805 91.5694 207.998 92.1174 207.998 92.8434C207.998 93.5552 207.699 94.1246 207.101 94.5516C206.517 94.9786 205.72 95.1922 204.709 95.1922C203.699 95.1922 202.93 94.9858 202.403 94.573C201.891 94.1459 201.571 93.5196 201.442 92.694L203.407 92.4164C203.45 92.9146 203.599 93.306 203.855 93.5907C204.111 93.8754 204.446 94.0178 204.859 94.0178C205.613 94.0178 205.99 93.7829 205.99 93.3132C205.99 92.8292 205.45 92.4377 204.368 92.1388L203.684 91.9253C202.973 91.726 202.439 91.4413 202.083 91.0712C201.741 90.6868 201.571 90.1388 201.571 89.427C201.571 88.7011 201.855 88.1388 202.425 87.7402C203.008 87.3274 203.784 87.121 204.752 87.121C205.72 87.121 206.46 87.3274 206.973 87.7402C207.485 88.153 207.805 88.7651 207.934 89.5765L205.948 89.8327C205.862 88.8078 205.428 88.2954 204.645 88.2954C203.934 88.2954 203.578 88.5231 203.578 88.9786C203.578 89.2491 203.706 89.4698 203.962 89.6406C204.218 89.7972 204.595 89.9466 205.094 90.089ZM220.956 89.4698V90.6868H219.526V92.4377C219.526 93.3203 219.262 94.0036 218.736 94.4875C218.223 94.9715 217.319 95.2135 216.024 95.2135C214.728 95.2135 213.796 94.9288 213.227 94.3594C212.657 93.79 212.373 93.1637 212.373 92.4804C212.373 91.7972 212.543 91.2349 212.885 90.7936C213.227 90.3381 213.682 90.0391 214.252 89.8968C213.796 89.7829 213.412 89.5338 213.099 89.1495C212.8 88.7651 212.65 88.3096 212.65 87.7829C212.65 86.9431 212.906 86.2669 213.419 85.7544C213.946 85.242 214.743 84.9858 215.81 84.9858C216.878 84.9858 217.64 85.1566 218.095 85.4982C218.565 85.8256 218.857 86.3737 218.97 87.1423L216.921 87.7829C216.864 86.5445 216.529 85.9253 215.917 85.9253C215.319 85.9253 215.02 86.5445 215.02 87.7829C215.02 88.2954 215.127 88.7082 215.341 89.0214C215.554 89.3203 215.86 89.4698 216.259 89.4698H220.956ZM217.433 90.6868H216.365C215.298 90.6868 214.764 91.2705 214.764 92.4377C214.764 92.9786 214.878 93.4199 215.106 93.7616C215.333 94.1032 215.675 94.274 216.131 94.274C216.586 94.274 216.914 94.1174 217.113 93.8043C217.326 93.4769 217.433 92.9715 217.433 92.2883V90.6868ZM229.588 94.1032C228.99 94.8292 228.193 95.1922 227.197 95.1922C226.528 95.1922 225.987 95 225.574 94.6157C225.176 94.2171 224.976 93.6833 224.976 93.0142C224.976 92.3452 225.211 91.8399 225.681 91.4982C226.151 91.1423 226.948 90.8648 228.072 90.6655L229.396 90.4093V89.6406C229.396 88.7438 229.076 88.2954 228.435 88.2954C227.724 88.2954 227.339 88.8719 227.282 90.0249L225.318 89.79C225.403 88.879 225.681 88.21 226.151 87.7829C226.62 87.3416 227.403 87.121 228.499 87.121C230.677 87.121 231.766 88.0107 231.766 89.79V95H230.186L229.588 94.1032ZM227.09 92.9502C227.09 93.6192 227.453 93.9537 228.179 93.9537C228.563 93.9537 228.969 93.726 229.396 93.2705V91.3701L228.435 91.5623C227.539 91.7616 227.09 92.2242 227.09 92.9502ZM236.939 88.2954C236.498 88.2954 236.192 88.5018 236.021 88.9146C235.85 89.3132 235.765 90.0605 235.765 91.1566C235.765 92.2384 235.85 92.9858 236.021 93.3986C236.206 93.8114 236.512 94.0178 236.939 94.0178C237.651 94.0178 238.014 93.3772 238.028 92.0961L240.014 92.1815C239.957 93.1922 239.686 93.9466 239.202 94.4448C238.733 94.9431 237.935 95.1922 236.811 95.1922C236.113 95.1922 235.53 95.0854 235.06 94.8719C233.95 94.3737 233.394 93.1352 233.394 91.1566C233.394 89.9609 233.594 89.0214 233.992 88.3381C234.476 87.5267 235.416 87.121 236.811 87.121C237.921 87.121 238.711 87.3559 239.181 87.8256C239.665 88.2954 239.935 89.0142 239.992 89.9822L238.028 90.1957C238.014 88.9288 237.651 88.2954 236.939 88.2954ZM244.837 88.2954C244.396 88.2954 244.09 88.5018 243.919 88.9146C243.748 89.3132 243.663 90.0605 243.663 91.1566C243.663 92.2384 243.748 92.9858 243.919 93.3986C244.104 93.8114 244.41 94.0178 244.837 94.0178C245.549 94.0178 245.912 93.3772 245.926 92.0961L247.912 92.1815C247.855 93.1922 247.585 93.9466 247.101 94.4448C246.631 94.9431 245.834 95.1922 244.709 95.1922C244.012 95.1922 243.428 95.0854 242.958 94.8719C241.848 94.3737 241.293 93.1352 241.293 91.1566C241.293 89.9609 241.492 89.0214 241.891 88.3381C242.375 87.5267 243.314 87.121 244.709 87.121C245.82 87.121 246.61 87.3559 247.079 87.8256C247.563 88.2954 247.834 89.0142 247.891 89.9822L245.926 90.1957C245.912 88.9288 245.549 88.2954 244.837 88.2954Z" fill="white" fill-opacity="0.79"/>
<path d="M188.955 15.3877C188.955 15.3877 187.407 13.6354 185.6 15.2264C183.794 16.8205 180.569 19.6854 180.569 19.6854C180.569 19.6854 175.669 25.0958 185.086 21.2777C185.086 21.2777 179.797 28.9098 189.341 23.3432C189.341 23.3432 190.812 30.3676 197.908 24.7646C196.125 22.2222 188.955 15.3877 188.955 15.3877Z" fill="#FFFBFB"/>
<path d="M193.114 27.6235C190.81 27.623 189.521 25.776 188.976 24.3301C186.89 25.4976 185.417 26.0662 184.484 26.0662C183.661 26.0662 183.297 25.6409 183.137 25.2843C182.809 24.5564 183.123 23.5137 183.569 22.5844C182.132 23.0862 181.054 23.3322 180.298 23.3322C179.292 23.3322 178.904 22.8659 178.757 22.4747C178.332 21.3501 179.572 19.8084 180.124 19.198C180.141 19.1805 180.157 19.1639 180.175 19.1477C180.175 19.1477 183.4 16.2829 185.207 14.6879C185.825 14.1437 186.488 13.8682 187.178 13.8682C188.473 13.8682 189.368 14.8638 189.405 14.9062C189.661 15.1467 196.604 21.7753 198.404 24.3426C198.509 24.4909 198.553 24.6793 198.529 24.8645C198.504 25.0498 198.412 25.2161 198.274 25.3253C196.342 26.8503 194.606 27.6235 193.114 27.6235ZM189.341 22.6526C189.429 22.6526 189.519 22.6733 189.601 22.7152C189.779 22.8046 189.908 22.9793 189.952 23.188C189.978 23.3109 190.639 26.2422 193.114 26.2427C194.203 26.2427 195.504 25.699 196.986 24.6245C194.751 21.8348 188.611 15.9728 188.544 15.9092C188.502 15.8659 187.933 15.2495 187.178 15.2495C186.78 15.2495 186.381 15.4227 185.992 15.7655C184.285 17.2725 181.307 19.9167 180.991 20.1977C180.454 20.7999 179.97 21.5813 179.925 21.9057C180.155 21.9841 181.27 22.0891 184.869 20.6299C185.131 20.5231 185.424 20.6208 185.591 20.8672C185.756 21.1142 185.754 21.4519 185.585 21.6961C184.77 22.8746 184.127 24.3213 184.262 24.6724C184.258 24.6568 184.33 24.6849 184.484 24.6854C185.038 24.6854 186.28 24.3467 189.047 22.7332C189.138 22.6798 189.239 22.6526 189.341 22.6526Z" fill="#F7C1D4"/>
<path d="M219.854 15.3877C219.854 15.3877 221.399 13.6354 223.206 15.2264C225.013 16.8205 228.238 19.6854 228.238 19.6854C228.238 19.6854 233.139 25.0958 223.723 21.2777C223.723 21.2777 229.01 28.9098 219.465 23.3432C219.465 23.3432 217.997 30.3676 210.9 24.7646C212.684 22.2222 219.854 15.3877 219.854 15.3877Z" fill="#FFFBFB"/>
<path d="M215.694 27.6235C214.201 27.6235 212.466 26.8503 210.534 25.3253C210.396 25.2161 210.304 25.0498 210.278 24.8645C210.254 24.6789 210.299 24.4909 210.403 24.3426C212.206 21.7753 219.148 15.1467 219.443 14.8657C219.44 14.8643 220.334 13.8682 221.629 13.8682C222.319 13.8682 222.981 14.1437 223.599 14.6874C225.406 16.2829 228.632 19.1477 228.632 19.1477C228.65 19.1634 228.667 19.1805 228.683 19.198C229.236 19.8084 230.475 21.3501 230.051 22.4747C229.903 22.8659 229.516 23.3317 228.509 23.3322C227.754 23.3322 226.676 23.0862 225.239 22.5844C225.685 23.5137 225.999 24.5559 225.671 25.2839C225.51 25.6409 225.147 26.0662 224.324 26.0662C223.391 26.0662 221.917 25.4976 219.831 24.3301C219.286 25.7763 217.999 27.6235 215.694 27.6235ZM211.822 24.625C213.303 25.699 214.604 26.2427 215.694 26.2427C218.186 26.2427 218.848 23.2188 218.854 23.1884C218.898 22.9797 219.027 22.8046 219.205 22.7152C219.383 22.6259 219.588 22.6332 219.76 22.7332C222.526 24.3467 223.769 24.6854 224.323 24.6854C224.477 24.6854 224.55 24.6568 224.565 24.6457C224.682 24.3195 224.038 22.8738 223.223 21.6961C223.054 21.4523 223.052 21.1146 223.218 20.8677C223.383 20.6208 223.678 20.5231 223.94 20.6299C226.633 21.7219 227.91 21.9513 228.509 21.9513C228.71 21.9513 228.824 21.9256 228.882 21.9057C228.837 21.5813 228.353 20.7999 227.816 20.1977C227.499 19.9172 224.522 17.2725 222.813 15.7651C222.424 15.4227 222.026 15.2495 221.629 15.2495C220.875 15.2495 220.307 15.8655 220.301 15.872C220.201 15.9701 214.057 21.8352 211.822 24.625Z" fill="#F7C1D4"/>
<path d="M204.404 10.0883C204.404 4.89764 208.229 0.690186 212.949 0.690186C217.667 0.690186 221.493 4.89764 221.493 10.0883C221.493 12.8085 220.425 15.2365 218.748 16.9537L218.769 16.9611L204.404 32.7629L190.034 16.9611C190.042 16.9537 190.045 16.9537 190.051 16.9491C188.375 15.2311 187.316 12.8085 187.316 10.0883C187.316 4.89764 191.138 0.690186 195.862 0.690186C200.576 0.690186 204.404 4.89764 204.404 10.0883Z" fill="#FF71AB"/>
<path d="M204.404 33.4531C204.243 33.4531 204.082 33.3858 203.96 33.2508L189.59 17.4489C189.557 17.4131 189.528 17.373 189.504 17.3301C187.687 15.4038 186.688 12.8388 186.688 10.0883C186.688 4.52573 190.804 0 195.862 0C199.742 0 203.067 2.66535 204.404 6.41894C205.741 2.66535 209.067 0 212.949 0C218.006 0 222.121 4.52573 222.121 10.0883C222.121 12.8366 221.119 15.4024 219.297 17.3333C219.274 17.3747 219.246 17.4139 219.213 17.4489L204.848 33.2508C204.725 33.3858 204.564 33.4531 204.404 33.4531ZM190.59 16.5956L204.404 31.7862L218.213 16.5961C218.242 16.5422 218.278 16.492 218.32 16.4482C219.961 14.7674 220.865 12.5089 220.865 10.0883C220.865 5.28739 217.314 1.38075 212.949 1.38075C208.583 1.38075 205.031 5.28739 205.031 10.0883C205.031 10.4698 204.75 10.7789 204.404 10.7789C204.057 10.7789 203.776 10.4698 203.776 10.0883C203.776 5.28739 200.226 1.38075 195.862 1.38075C191.496 1.38075 187.944 5.28739 187.944 10.0883C187.944 12.5107 188.844 14.7679 190.479 16.4441C190.522 16.4888 190.56 16.5404 190.59 16.5956Z" fill="#F7C1D4"/>
<path d="M192.02 12.797C191.634 12.797 191.322 12.4537 191.322 12.0298C191.322 8.88571 193.811 5.2312 197.019 5.2312C197.404 5.2312 197.716 5.57495 197.716 5.99881C197.716 6.42267 197.404 6.76595 197.019 6.76595C194.702 6.76595 192.717 9.66021 192.717 12.0298C192.717 12.4537 192.405 12.797 192.02 12.797Z" fill="#FFFBFB"/>
<line y1="46.5" x2="101.005" y2="46.5" stroke="white"/>
<line x1="305" y1="46.5" x2="406.005" y2="46.5" stroke="white"/>
</svg>



