<svg width="44" height="44" viewBox="0 0 44 44" fill="none" xmlns="http://www.w3.org/2000/svg">
<path d="M22 0C17.6489 0 13.3953 1.29027 9.77746 3.70766C6.15959 6.12504 3.33979 9.56097 1.67467 13.5809C0.00954115 17.6008 -0.426142 22.0245 0.422728 26.2919C1.2716 30.5596 3.36691 34.4795 6.44366 37.5564C9.52042 40.6331 13.4404 42.7284 17.7081 43.5773C21.9755 44.4262 26.3992 43.9903 30.4191 42.3252C34.4391 40.6601 37.8749 37.8405 40.2924 34.2226C42.7097 30.6047 44 26.3513 44 22C44 16.1652 41.682 10.5695 37.5565 6.44366C33.4307 2.31784 27.8347 0 22 0ZM32.8075 15.07L29.205 32.0925C28.93 33.3025 28.215 33.5775 27.1975 33.0275L21.6975 28.9575L18.9475 31.515C18.818 31.6841 18.6516 31.8216 18.461 31.917C18.2705 32.0122 18.0606 32.0628 17.8475 32.065L18.2325 26.565L28.4075 17.3525C28.875 16.9675 28.4075 16.7475 27.7475 17.1325L15.2625 24.97L9.7625 23.265C8.58 22.9075 8.5525 22.0825 10.01 21.5325L31.2125 13.2825C32.2575 12.98 33.1375 13.585 32.8075 15.07Z" fill="#ED749F"/>
</svg>
